<?xml version="1.0" encoding="utf-8"?>
<!-- Generator: Adobe Illustrator 22.1.0, SVG Export Plug-In . SVG Version: 6.00 Build 0)  -->
<svg version="1.1" id="Layer_1" xmlns="http://www.w3.org/2000/svg" xmlns:xlink="http://www.w3.org/1999/xlink" x="0px" y="0px"
	 viewBox="0 0 1586 414" style="enable-background:new 0 0 1586 414;" xml:space="preserve">
<style type="text/css">
	.st0{fill:#FEFEFE;}
</style>
<path class="st0" d="M761.9,290h4.3v25.4h-4.3V290z M790.4,80.8c1-2.4,2.9-3.6,5.8-3.6c0.8,0,1.5,0.1,2.1,0.2v-4
	c-0.4-0.2-1.1-0.3-1.9-0.3c-2.6,0-4.6,1.1-6,3.4l-0.1-2.9H786v25.4h4.3V80.8z M750.3,315.3h4.3v-36h-4.3V315.3z M764.1,280.7
	c-0.8,0-1.5,0.2-1.9,0.7s-0.6,1.1-0.6,1.8s0.2,1.3,0.6,1.8s1.1,0.7,1.9,0.7s1.5-0.2,1.9-0.7s0.7-1.1,0.7-1.8s-0.2-1.3-0.7-1.8
	S765,280.7,764.1,280.7z M817.4,292.8c1.8,2.2,2.7,5.3,2.7,9.3v1.8h-17.2c0.1,2.5,0.8,4.5,2.2,6.1s3.2,2.3,5.3,2.3
	c1.5,0,2.8-0.3,3.9-0.9s2-1.5,2.8-2.5l2.6,2.1c-2.1,3.3-5.3,4.9-9.6,4.9c-3.4,0-6.2-1.1-8.4-3.4s-3.2-5.3-3.2-9.1v-0.8
	c0-2.5,0.5-4.8,1.4-6.7s2.3-3.5,4-4.6s3.6-1.7,5.6-1.7C813,289.5,815.5,290.6,817.4,292.8z M815.8,300c-0.1-2.2-0.7-3.9-1.8-5.1
	s-2.5-1.8-4.3-1.8c-1.8,0-3.2,0.6-4.4,1.9s-1.9,3.1-2.2,5.4h12.7V300z M785,289.5c-3.1,0-5.7,1.2-7.6,3.7l-0.1-3.2h-4.1v25.4h4.3
	v-18.1c0.6-1.2,1.4-2.2,2.5-3s2.3-1.1,3.7-1.1c1.7,0,3,0.4,3.8,1.3s1.2,2.2,1.3,4.1v16.8h4.3v-16.8
	C793.1,292.5,790.4,289.5,785,289.5z M737.5,281.1c-1.5,1.5-2.2,3.6-2.2,6.3v2.6h-4v3.4h4v22h4.3v-22h5.4V290h-5.4v-2.7
	c0-1.5,0.4-2.7,1.1-3.5s1.9-1.2,3.3-1.2c0.8,0,1.6,0.1,2.3,0.2l0.2-3.5c-1-0.3-2-0.4-3-0.4C741.1,278.8,739,279.6,737.5,281.1z
	 M645.8,95.9c-2.2-2.3-3.2-5.3-3.2-9.1v-0.8c0-2.5,0.5-4.8,1.4-6.7s2.3-3.5,4-4.6s3.6-1.7,5.6-1.7c3.3,0,5.9,1.1,7.7,3.3
	s2.7,5.3,2.7,9.3v1.8h-17.2c0.1,2.5,0.8,4.5,2.2,6.1s3.2,2.3,5.3,2.3c1.5,0,2.8-0.3,3.9-0.9s2-1.5,2.8-2.5l2.6,2.1
	c-2.1,3.3-5.3,4.9-9.6,4.9C650.7,99.3,647.9,98.2,645.8,95.9z M647,83.8h12.7v-0.3c-0.1-2.2-0.7-3.9-1.8-5.1s-2.5-1.8-4.3-1.8
	c-1.8,0-3.2,0.6-4.4,1.9S647.3,81.6,647,83.8z M812,99.3c1.7,0,3.3-0.4,4.9-1.2s2.8-1.8,3.7-3.1s1.4-2.7,1.5-4.1H818
	c-0.1,1.4-0.8,2.6-1.9,3.5s-2.5,1.4-4.1,1.4c-2.2,0-4-0.8-5.2-2.4s-1.8-3.8-1.8-6.8v-0.8c0-3,0.6-5.3,1.8-6.9s2.9-2.4,5.1-2.4
	c1.6,0,3,0.5,4.1,1.6s1.7,2.4,1.9,4h4.1c-0.1-2.7-1.1-4.9-3-6.6S814.8,73,812,73c-2.3,0-4.3,0.5-6,1.6s-3,2.6-3.9,4.5
	s-1.4,4.1-1.4,6.6v0.7c0,4,1,7.2,3.1,9.5S808.5,99.3,812,99.3z M829.1,95.9c-2.2-2.3-3.2-5.3-3.2-9.1v-0.8c0-2.5,0.5-4.8,1.4-6.7
	s2.3-3.5,4-4.6s3.6-1.7,5.6-1.7c3.3,0,5.9,1.1,7.7,3.3s2.7,5.3,2.7,9.3v1.8h-17.2c0.1,2.5,0.8,4.5,2.2,6.1s3.2,2.3,5.3,2.3
	c1.5,0,2.8-0.3,3.9-0.9s2-1.5,2.8-2.5l2.6,2.1c-2.1,3.3-5.3,4.9-9.6,4.9C834,99.3,831.2,98.2,829.1,95.9z M830.3,83.8H843v-0.3
	c-0.1-2.2-0.7-3.9-1.8-5.1s-2.5-1.8-4.3-1.8c-1.8,0-3.2,0.6-4.4,1.9S830.6,81.6,830.3,83.8z M720.7,94.8c-1,0.7-2.3,1-3.9,1
	c-1.8,0-3.2-0.4-4.3-1.3s-1.7-2-1.7-3.5h-4.3c0,1.5,0.4,2.9,1.3,4.2s2.1,2.3,3.7,3s3.4,1.1,5.4,1.1c2.9,0,5.2-0.7,7.1-2.1
	s2.7-3.2,2.7-5.4c0-1.4-0.3-2.5-1-3.5s-1.6-1.8-3-2.4s-3.1-1.3-5.3-1.7s-3.7-1-4.5-1.5s-1.2-1.3-1.2-2.4c0-1.1,0.4-2,1.3-2.7
	s2.1-1,3.7-1c1.5,0,2.8,0.4,3.8,1.3s1.5,1.9,1.5,3.1h4.4c0-2.3-0.9-4.2-2.7-5.7s-4.1-2.2-7-2.2c-2.7,0-5,0.7-6.7,2.2
	s-2.6,3.2-2.6,5.3c0,1.3,0.3,2.3,0.9,3.2s1.6,1.7,2.9,2.3s3,1.2,5.2,1.7s3.7,1,4.6,1.7s1.3,1.6,1.3,2.7
	C722.2,93.2,721.7,94.1,720.7,94.8z M585,91.7c-1.1-2.4-1.7-5.3-1.8-8.5v-2.5c0-3.3,0.6-6.2,1.7-8.7s2.8-4.4,4.8-5.8s4.5-2,7.2-2
	c2.7,0,5.1,0.7,7.2,2s3.7,3.2,4.8,5.7s1.7,5.4,1.7,8.8v2.2c0,3.3-0.6,6.3-1.7,8.8s-2.7,4.4-4.8,5.7s-4.5,2-7.2,2
	c-2.7,0-5.1-0.7-7.1-2S586.1,94.1,585,91.7z M587.7,82.9c0,3.9,0.8,7,2.5,9.2s3.9,3.4,6.8,3.4c2.9,0,5.2-1.1,6.8-3.2
	s2.4-5.2,2.5-9.1v-2.5c0-4-0.8-7.2-2.4-9.3s-3.9-3.2-6.8-3.2c-2.8,0-5.1,1.1-6.7,3.2s-2.5,5.2-2.5,9V82.9z M621.1,108.6h-4.3V73.5h4
	l0.2,2.8c1.8-2.2,4.2-3.3,7.4-3.3c3,0,5.5,1.1,7.2,3.4s2.7,5.5,2.7,9.6v0.4c0,3.9-0.9,7-2.6,9.3s-4.2,3.5-7.2,3.5
	c-3.1,0-5.5-1-7.3-2.9V108.6z M621.1,92.3c1.3,2.3,3.3,3.5,6,3.5c2.1,0,3.7-0.8,5-2.5s1.8-4.1,1.8-7.3c0-2.9-0.6-5.1-1.8-6.8
	s-2.9-2.5-5-2.5c-2.6,0-4.6,1.2-5.9,3.5V92.3z M673.4,80.8c0.6-1.2,1.4-2.2,2.5-3s2.3-1.1,3.7-1.1c1.7,0,3,0.4,3.8,1.3
	s1.2,2.2,1.3,4.1v16.8h4.3V82.1c0-6-2.8-9.1-8.1-9.1c-3.1,0-5.7,1.2-7.6,3.7l-0.1-3.2h-4.1v25.4h4.3V80.8z M370,9.8
	c-2-2-2.4-5.2-0.7-7.4c2-2.5,5.7-2.7,8-0.5C417,40.8,445.7,89.5,460.6,143c0.8,2.8,3.2,4.7,6.1,4.7h214.4c4.9,0,9.5-2.3,12.4-6.3
	c3.8-5.3,9.9-8.5,16.4-8.5c11.3,0,20.5,9.4,20.2,20.8c-0.4,10.8-9.2,19.4-20,19.6c-6.9,0.1-13-3.3-16.7-8.5c-2.9-4-7.5-6.3-12.4-6.2
	H462.5c-5.4,0-10-3.6-11.4-8.8C437.3,96.6,409.3,48.2,370,9.8z M700.7,153c0,5.2,4.2,9.4,9.4,9.4c5.2,0,9.4-4.2,9.4-9.4c0,0,0,0,0,0
	c0-5.2-4.2-9.4-9.4-9.4C704.9,143.6,700.7,147.8,700.7,153z M708.8,288.5c1.1,2.5,1.7,5.4,1.7,8.8v2.2c0,3.3-0.6,6.3-1.7,8.8
	s-2.7,4.4-4.8,5.7s-4.5,2-7.2,2c-2.7,0-5.1-0.7-7.1-2s-3.7-3.2-4.8-5.6s-1.7-5.3-1.8-8.5v-2.5c0-3.3,0.6-6.2,1.7-8.7
	s2.8-4.4,4.8-5.8s4.5-2,7.2-2c2.7,0,5.1,0.7,7.2,2S707.7,285.9,708.8,288.5z M706,297.2c0-4-0.8-7.2-2.4-9.3s-3.9-3.2-6.8-3.2
	c-2.8,0-5.1,1.1-6.7,3.2s-2.5,5.2-2.5,9v2.5c0,3.9,0.8,7,2.5,9.2s3.9,3.4,6.8,3.4c2.9,0,5.2-1.1,6.8-3.2s2.4-5.2,2.5-9.1V297.2z
	 M767.8,99.3c3.3,0,5.7-1,7.4-3l0.1,2.5h4.1V73.5h-4.3v18.4c-1.1,2.5-3.3,3.7-6.6,3.7c-3.1,0-4.7-1.9-4.7-5.8V73.5h-4.3V90
	c0,3.1,0.7,5.4,2.1,7S765.1,99.3,767.8,99.3z M734.2,95.7c-2.1-2.4-3.2-5.6-3.2-9.5v-0.3c0-2.5,0.5-4.7,1.5-6.7s2.3-3.5,4.1-4.6
	s3.7-1.6,6-1.6c3.5,0,6.2,1.2,8.4,3.6s3.2,5.6,3.2,9.5v0.3c0,2.5-0.5,4.7-1.4,6.6s-2.3,3.5-4.1,4.6s-3.8,1.6-6.1,1.6
	C739.2,99.3,736.4,98.1,734.2,95.7z M735.4,86.5c0,2.8,0.7,5.1,2,6.8s3.1,2.6,5.2,2.6c2.2,0,4-0.9,5.3-2.6s1.9-4.1,1.9-7.3
	c0-2.8-0.7-5-2-6.8s-3.1-2.6-5.3-2.6c-2.1,0-3.9,0.9-5.2,2.6S735.4,83.3,735.4,86.5z M720.9,281.1c-1.5,1.5-2.2,3.6-2.2,6.3v2.6h-4
	v3.4h4v22h4.3v-22h5.4V290H723v-2.7c0-1.5,0.4-2.7,1.1-3.5s1.9-1.2,3.3-1.2c0.8,0,1.6,0.1,2.3,0.2l0.2-3.5c-1-0.3-2-0.4-3-0.4
	C724.4,278.8,722.3,279.6,720.9,281.1z M155.7,41.7c-33.6-0.2-66.2,10.7-93,31c-39.2,29.2-62.2,75.2-62,124v62
	c0,8.9,3.8,16.9,9.8,22.6c10.5,9.9,16.6,23.6,16.6,38v3.5C27,337,21,350.6,10.5,360.2c-7.1,6.6-10.7,16.2-9.6,25.9
	c1.7,14.9,13.7,26.5,28.7,27.6c9.3,0.6,18.4-2.9,24.7-9.7c11.7-12.5,11.1-32.1-1.3-43.8c-10.5-9.9-16.6-23.6-16.6-38v-2.9
	c0.1-14.4,6.1-28.2,16.6-38c6-5.7,9.8-13.7,9.8-22.6v-62c0-10.6,1.8-21,5.3-31c9.4-26.2,30-46.7,56.2-56.2
	c48.4-17.4,101.8,7.7,119.2,56.2c7.1,20.1,7.1,41.9,0,62c-13.2,37.1-48.3,61.9-87.7,62h-62c-17.1,0-31,13.9-31,31
	c0,17.1,13.9,31,31,31h62.1c33.6,0.2,66.2-10.7,93-31c30.4-22.7,51.4-55.8,58.9-93c4.1-20.5,4.1-41.5,0-62
	C292.9,93.5,229.4,41.7,155.7,41.7z M186.8,196.7c0-17.1-13.9-31-31-31c-17.1,0-31,13.9-31,31c0,17.1,13.9,31,31,31
	S186.8,213.8,186.8,196.7z M1411.4,205.8h4.3v-36h-4.3V205.8z M1237.4,183.2c1.8,2.2,2.7,5.3,2.7,9.3v1.8H1223
	c0.1,2.5,0.8,4.5,2.2,6.1s3.2,2.3,5.3,2.3c1.5,0,2.8-0.3,3.9-0.9s2-1.5,2.8-2.5l2.6,2.1c-2.1,3.3-5.3,4.9-9.6,4.9
	c-3.4,0-6.2-1.1-8.4-3.4s-3.2-5.3-3.2-9.1V193c0-2.5,0.5-4.8,1.4-6.7s2.3-3.5,4-4.6s3.6-1.7,5.6-1.7
	C1233,180,1235.6,181,1237.4,183.2z M1235.8,190.5c-0.1-2.2-0.7-3.9-1.8-5.1s-2.5-1.8-4.3-1.8c-1.8,0-3.2,0.6-4.4,1.9
	s-1.9,3.1-2.2,5.4h12.7V190.5z M1360.9,205.8h4.3v-36h-4.3V205.8z M1402.9,183.4c1.8,2.3,2.7,5.5,2.7,9.6v0.4c0,3.9-0.9,7-2.6,9.3
	s-4.2,3.5-7.2,3.5c-3.1,0-5.5-1-7.3-2.9v12.2h-4.3v-35.1h4l0.2,2.8c1.8-2.2,4.2-3.3,7.4-3.3C1398.7,180,1401.1,181.1,1402.9,183.4z
	 M1401.2,192.9c0-2.9-0.6-5.1-1.8-6.8s-2.9-2.5-5-2.5c-2.6,0-4.6,1.2-5.9,3.5v12.1c1.3,2.3,3.3,3.5,6,3.5c2.1,0,3.7-0.8,5-2.5
	S1401.2,196.1,1401.2,192.9z M832.6,227.2L832.6,227.2c0.3,11.2-8.5,20.4-19.7,20.7c-6.7,0.2-13-3-16.9-8.4c-2.8-4-7.5-6.3-12.4-6.3
	H478.3c-3.5,0-6.3,2.7-6.4,6.2c-0.9,24-4.4,47.9-10.7,70.9c-0.7,2.8-3.6,4.6-6.4,3.8c-0.2,0-0.3-0.1-0.5-0.1c-2.8-0.9-4.2-4-3.5-6.8
	c5.9-21.9,9.3-44.5,10.1-67.3c0.2-3.5-2.6-6.5-6.1-6.7c-0.1,0-0.2,0-0.3,0H416c-3.4,0-6.2,2.7-6.4,6.1
	c-2.7,62.4-28.4,121.6-72.1,166.2c-2.1,2.1-5.5,2.2-7.6,0.1c-0.1-0.1-0.2-0.3-0.4-0.4c-1.9-2.2-1.5-5.5,0.5-7.5
	c42.9-43.8,67.5-102.3,68.9-163.6c0.2-6.4,5.4-11.5,11.8-11.6h372.7c4.9,0,9.5-2.3,12.4-6.2c6.3-9.2,18.9-11.5,28.1-5.1
	C829.2,214.8,832.4,220.8,832.6,227.2z M821.9,227.7c0-5.2-4.2-9.4-9.4-9.4c-5.2,0-9.4,4.2-9.4,9.4s4.2,9.4,9.4,9.4
	C817.7,237.2,821.9,232.9,821.9,227.7z M1342.1,199.9c0,2.3,0.3,4.2,0.9,5.6v0.4h-4.5c-0.3-0.5-0.5-1.4-0.6-2.7
	c-2,2.1-4.4,3.1-7.2,3.1c-2.5,0-4.6-0.7-6.2-2.1s-2.4-3.2-2.4-5.4c0-2.6,1-4.7,3-6.2s4.8-2.2,8.5-2.2h4.2v-2c0-1.5-0.5-2.7-1.4-3.6
	s-2.2-1.3-4-1.3c-1.5,0-2.8,0.4-3.9,1.2s-1.6,1.7-1.6,2.8h-4.4c0-1.3,0.4-2.5,1.3-3.7s2.1-2.1,3.7-2.8s3.2-1,5.1-1
	c2.9,0,5.2,0.7,6.9,2.2s2.5,3.5,2.6,6V199.9z M1337.8,193.5h-3.4c-5.3,0-8,1.6-8,4.7c0,1.4,0.5,2.4,1.4,3.2s2.1,1.1,3.5,1.1
	c1.4,0,2.6-0.4,3.9-1.1s2.1-1.6,2.6-2.7V193.5z M1275.8,183.5c2.1,2.4,3.2,5.6,3.2,9.5v0.3c0,2.5-0.5,4.7-1.4,6.6s-2.3,3.5-4.1,4.6
	s-3.8,1.6-6.1,1.6c-3.4,0-6.2-1.2-8.4-3.6s-3.2-5.6-3.2-9.5v-0.3c0-2.5,0.5-4.7,1.5-6.7s2.3-3.5,4.1-4.6s3.7-1.6,6-1.6
	C1270.9,180,1273.7,181.2,1275.8,183.5z M1274.7,192.9c0-2.8-0.7-5-2-6.8s-3.1-2.6-5.3-2.6c-2.1,0-3.9,0.9-5.2,2.6s-2,4.1-2,7.3
	c0,2.8,0.7,5.1,2,6.8s3.1,2.6,5.2,2.6c2.2,0,4-0.9,5.3-2.6S1274.7,196,1274.7,192.9z M1296.3,180c-3.1,0-5.7,1.2-7.6,3.7l-0.1-3.2
	h-4.1v25.4h4.3v-18.1c0.6-1.2,1.4-2.2,2.5-3s2.3-1.1,3.7-1.1c1.7,0,3,0.4,3.8,1.3s1.2,2.2,1.3,4.1v16.8h4.3V189
	C1304.3,183,1301.6,180,1296.3,180z M1349.3,205.8h4.3v-36h-4.3V205.8z M1551.8,180c-1.8,0-3.4,0.4-4.8,1.1s-2.4,1.7-3.3,3
	c-1.3-2.7-3.7-4.1-7.2-4.1c-3.2,0-5.7,1.1-7.5,3.3l-0.1-2.8h-4.1v25.4h4.3v-18.5c1-2.4,3-3.6,5.8-3.6c3.6,0,5.4,1.8,5.4,5.5v16.6
	h4.4V189c0.2-1.6,0.8-2.9,1.9-3.9s2.4-1.4,4-1.4c2,0,3.3,0.4,4.2,1.3s1.2,2.3,1.2,4.1v16.7h4.3v-17
	C1560.2,182.9,1557.3,180,1551.8,180z M1512.8,183.4l-0.1-2.9h-4.2v25.4h4.3v-18c1-2.4,2.9-3.6,5.8-3.6c0.8,0,1.5,0.1,2.1,0.2v-4
	c-0.4-0.2-1.1-0.3-1.9-0.3C1516.2,180,1514.2,181.1,1512.8,183.4z M1584.9,195.3c-0.6-0.9-1.6-1.8-3-2.4s-3.1-1.3-5.3-1.7
	s-3.7-1-4.5-1.5s-1.2-1.3-1.2-2.4c0-1.1,0.4-2,1.3-2.7s2.1-1,3.7-1c1.5,0,2.8,0.4,3.8,1.3s1.5,1.9,1.5,3.1h4.4
	c0-2.3-0.9-4.2-2.7-5.7s-4.1-2.2-7-2.2c-2.7,0-5,0.7-6.7,2.2s-2.6,3.2-2.6,5.3c0,1.3,0.3,2.3,0.9,3.2s1.6,1.7,2.9,2.3s3,1.2,5.2,1.7
	s3.7,1,4.6,1.7s1.3,1.6,1.3,2.7c0,1.1-0.5,2-1.5,2.7s-2.3,1-3.9,1c-1.8,0-3.2-0.4-4.3-1.3s-1.7-2-1.7-3.5h-4.3
	c0,1.5,0.4,2.9,1.3,4.2s2.1,2.3,3.7,3s3.4,1.1,5.4,1.1c2.9,0,5.2-0.7,7.1-2.1s2.7-3.2,2.7-5.4
	C1585.9,197.4,1585.6,196.2,1584.9,195.3z M1499.9,183.5c2.1,2.4,3.2,5.6,3.2,9.5v0.3c0,2.5-0.5,4.7-1.4,6.6s-2.3,3.5-4.1,4.6
	s-3.8,1.6-6.1,1.6c-3.4,0-6.2-1.2-8.4-3.6s-3.2-5.6-3.2-9.5v-0.3c0-2.5,0.5-4.7,1.5-6.7s2.3-3.5,4.1-4.6s3.7-1.6,6-1.6
	C1494.9,180,1497.7,181.2,1499.9,183.5z M1498.7,192.9c0-2.8-0.7-5-2-6.8s-3.1-2.6-5.3-2.6c-2.1,0-3.9,0.9-5.2,2.6s-2,4.1-2,7.3
	c0,2.8,0.7,5.1,2,6.8s3.1,2.6,5.2,2.6c2.2,0,4-0.9,5.3-2.6S1498.7,196,1498.7,192.9z M1455.3,201.8c-0.4-0.5-0.6-1.3-0.6-2.3v-15.7
	h4.7v-3.4h-4.7v-6.1h-4.3v6.1h-4.6v3.4h4.6v15.7c0,2.2,0.5,3.8,1.5,5s2.4,1.8,4.4,1.8c1.1,0,2.2-0.2,3.3-0.5v-3.5
	c-0.9,0.2-1.6,0.3-2.1,0.3C1456.4,202.6,1455.7,202.3,1455.3,201.8z M1468.8,171.5c-1.5,1.5-2.2,3.6-2.2,6.3v2.6h-4v3.4h4v22h4.3
	v-22h5.4v-3.4h-5.4v-2.7c0-1.5,0.4-2.7,1.1-3.5c0.8-0.8,1.9-1.2,3.3-1.2c0.8,0,1.6,0.1,2.3,0.2l0.2-3.5c-1-0.3-2-0.4-3-0.4
	C1472.3,169.3,1470.2,170,1468.8,171.5z M1442,199.9c0,2.3,0.3,4.2,0.9,5.6v0.4h-4.5c-0.3-0.5-0.5-1.4-0.6-2.7
	c-2,2.1-4.4,3.1-7.2,3.1c-2.5,0-4.6-0.7-6.2-2.1s-2.4-3.2-2.4-5.4c0-2.6,1-4.7,3-6.2s4.8-2.2,8.5-2.2h4.2v-2c0-1.5-0.5-2.7-1.4-3.6
	s-2.2-1.3-4-1.3c-1.5,0-2.8,0.4-3.9,1.2s-1.6,1.7-1.6,2.8h-4.4c0-1.3,0.4-2.5,1.3-3.7s2.1-2.1,3.7-2.8s3.2-1,5.1-1
	c2.9,0,5.2,0.7,6.9,2.2s2.5,3.5,2.6,6V199.9z M1437.6,193.5h-3.4c-5.3,0-8,1.6-8,4.7c0,1.4,0.5,2.4,1.4,3.2s2.1,1.1,3.5,1.1
	c1.4,0,2.6-0.4,3.9-1.1s2.1-1.6,2.6-2.7V193.5z M1000,189.4L1000,189.4c0.3,11.2-8.5,20.4-19.7,20.7c-6.7,0.2-13-3-16.9-8.4
	c-2.8-4-7.5-6.3-12.4-6.3H407.2c-5.7,0-10.6-4.2-11.6-9.8c-5.5-31.4-16.9-61-34.1-88c-1.5-2.4-1.2-5.6,1-7.4c2.5-2,6.2-1.4,7.9,1.3
	c17.2,27.1,29,56.6,35,87.9c0.6,3,3.2,5.2,6.3,5.2H951c4.9,0,9.5-2.3,12.4-6.2c3.7-5.2,9.8-8.6,16.7-8.6
	C990.7,169.9,999.7,178.7,1000,189.4z M989.2,190c0-5.2-4.2-9.4-9.4-9.4c-5.2,0-9.4,4.2-9.4,9.4c0,0,0,0,0,0c0,5.2,4.2,9.4,9.4,9.4
	C985,199.4,989.2,195.2,989.2,190z M951.2,292.8c1.8,2.2,2.7,5.3,2.7,9.3v1.8h-17.2c0.1,2.5,0.8,4.5,2.2,6.1s3.2,2.3,5.3,2.3
	c1.5,0,2.8-0.3,3.9-0.9s2-1.5,2.8-2.5l2.6,2.1c-2.1,3.3-5.3,4.9-9.6,4.9c-3.4,0-6.2-1.1-8.4-3.4s-3.2-5.3-3.2-9.1v-0.8
	c0-2.5,0.5-4.8,1.4-6.7s2.3-3.5,4-4.6s3.6-1.7,5.6-1.7C946.8,289.5,949.4,290.6,951.2,292.8z M949.6,300c-0.1-2.2-0.7-3.9-1.8-5.1
	s-2.5-1.8-4.3-1.8c-1.8,0-3.2,0.6-4.4,1.9s-1.9,3.1-2.2,5.4h12.7V300z M1067,171.7l13.1,34.1h-4.6l-3.3-8.9h-14.3l-3.2,8.9h-4.6
	l13-34.1H1067z M1070.8,193.2l-5.8-16l-5.8,16H1070.8z M897.8,293.1c2.1,2.4,3.2,5.6,3.2,9.5v0.3c0,2.5-0.5,4.7-1.4,6.6
	s-2.3,3.5-4.1,4.6s-3.8,1.6-6.1,1.6c-3.4,0-6.2-1.2-8.4-3.6s-3.2-5.6-3.2-9.5v-0.3c0-2.5,0.5-4.7,1.5-6.7s2.3-3.5,4.1-4.6
	s3.7-1.6,6-1.6C892.9,289.5,895.7,290.7,897.8,293.1z M896.7,302.4c0-2.8-0.7-5-2-6.8s-3.1-2.6-5.3-2.6c-2.1,0-3.9,0.9-5.2,2.6
	s-2,4.1-2,7.3c0,2.8,0.7,5.1,2,6.8s3.1,2.6,5.2,2.6c2.2,0,4-0.9,5.3-2.6S896.7,305.5,896.7,302.4z M864,289.5
	c-1.8,0-3.4,0.4-4.8,1.1s-2.4,1.7-3.3,3c-1.3-2.7-3.7-4.1-7.2-4.1c-3.2,0-5.7,1.1-7.5,3.3l-0.1-2.8H837v25.4h4.3v-18.5
	c1-2.4,3-3.6,5.8-3.6c3.6,0,5.4,1.8,5.4,5.5v16.6h4.4v-16.8c0.2-1.6,0.8-2.9,1.9-3.9s2.4-1.4,4-1.4c2,0,3.3,0.4,4.2,1.3
	s1.2,2.3,1.2,4.1v16.7h4.3v-17C872.4,292.4,869.6,289.5,864,289.5z M922.4,279.3h4.3v36h-4l-0.2-2.7c-1.7,2.1-4.1,3.2-7.2,3.2
	c-2.9,0-5.3-1.2-7.2-3.6s-2.8-5.5-2.8-9.4v-0.3c0-3.9,0.9-7,2.8-9.4s4.3-3.6,7.2-3.6c3,0,5.3,1,7.1,3V279.3z M922.4,296.8
	c-1.3-2.4-3.3-3.6-6-3.6c-2.1,0-3.8,0.8-5,2.5s-1.8,4.1-1.8,7.3c0,2.9,0.6,5.1,1.8,6.8s2.8,2.4,4.9,2.4c2.8,0,4.8-1.2,6-3.7V296.8z
	 M1208.5,205.8h4.3v-36h-4.3V205.8z M1091.1,199.9l-6.4-19.5h-4.4l9.2,25.4h3.3l9.1-25.4h-4.4L1091.1,199.9z M1143.8,205.8h4.3v-36
	h-4.3V205.8z M1174.4,199.9c0,2.3,0.3,4.2,0.9,5.6v0.4h-4.5c-0.3-0.5-0.5-1.4-0.6-2.7c-2,2.1-4.4,3.1-7.2,3.1
	c-2.5,0-4.6-0.7-6.2-2.1s-2.4-3.2-2.4-5.4c0-2.6,1-4.7,3-6.2s4.8-2.2,8.5-2.2h4.2v-2c0-1.5-0.5-2.7-1.4-3.6s-2.2-1.3-4-1.3
	c-1.5,0-2.8,0.4-3.9,1.2s-1.6,1.7-1.6,2.8h-4.4c0-1.3,0.4-2.5,1.3-3.7s2.1-2.1,3.7-2.8s3.2-1,5.1-1c2.9,0,5.2,0.7,6.9,2.2
	s2.5,3.5,2.6,6V199.9z M1170,193.5h-3.4c-5.3,0-8,1.6-8,4.7c0,1.4,0.5,2.4,1.4,3.2s2.1,1.1,3.5,1.1c1.4,0,2.6-0.4,3.9-1.1
	s2.1-1.6,2.6-2.7V193.5z M1200,183.5c1.8,2.3,2.6,5.5,2.6,9.6v0.4c0,3.9-0.9,7-2.7,9.3s-4.2,3.5-7.2,3.5c-3.2,0-5.7-1.1-7.4-3.4
	l-0.2,2.9h-4v-36h4.3v13.4c1.8-2.2,4.2-3.3,7.2-3.3S1198.2,181.1,1200,183.5z M1198.3,192.9c0-3-0.6-5.2-1.7-6.8s-2.8-2.4-4.9-2.4
	c-2.9,0-4.9,1.3-6.2,4v11c1.3,2.7,3.4,4,6.2,4c2.1,0,3.7-0.8,4.9-2.4S1198.3,196.1,1198.3,192.9z M1132.1,205.8h4.3v-25.4h-4.3
	V205.8z M1125,199.9c0,2.3,0.3,4.2,0.9,5.6v0.4h-4.5c-0.3-0.5-0.5-1.4-0.6-2.7c-2,2.1-4.4,3.1-7.2,3.1c-2.5,0-4.6-0.7-6.2-2.1
	s-2.4-3.2-2.4-5.4c0-2.6,1-4.7,3-6.2s4.8-2.2,8.5-2.2h4.2v-2c0-1.5-0.5-2.7-1.4-3.6s-2.2-1.3-4-1.3c-1.5,0-2.8,0.4-3.9,1.2
	s-1.6,1.7-1.6,2.8h-4.4c0-1.3,0.4-2.5,1.3-3.7s2.1-2.1,3.7-2.8s3.2-1,5.1-1c2.9,0,5.2,0.7,6.9,2.2s2.5,3.5,2.6,6V199.9z
	 M1120.6,193.5h-3.4c-5.3,0-8,1.6-8,4.7c0,1.4,0.5,2.4,1.4,3.2s2.1,1.1,3.5,1.1c1.4,0,2.6-0.4,3.9-1.1s2.1-1.6,2.6-2.7V193.5z
	 M1134.3,171.2c-0.8,0-1.5,0.2-1.9,0.7s-0.6,1.1-0.6,1.8s0.2,1.3,0.6,1.8s1.1,0.7,1.9,0.7s1.5-0.2,1.9-0.7s0.7-1.1,0.7-1.8
	s-0.2-1.3-0.7-1.8S1135.2,171.2,1134.3,171.2z"/>
</svg>
