<svg id="Layer_1" xmlns="http://www.w3.org/2000/svg" viewBox="0 0 432 432"><path class="st0" d="M43 269.3c-.1 0-.1 0 0 0zM93.3 433h2.1l-.2-.8c-.6.1-1.2.8-1.9.8zM374.1 10.4c.2 0 .2 0 0 0zM146.8 180.3zM146.8 180.3zM392.2 338.8zM392 213.9zM240.6 328.3c.2 0 .2 0 0 0zM320.3 79.6c-.1 0-.1 0 0 0zM392.2 338.8z"/><path class="st1" d="M267.1 89.8c-4.7-3.2.5-9.1-5.6-11.7-3.3-1.4-8-1.9-9.5 2.6l.1.1c-.3 1.7-2.3 2.6-3.8 3.1a2 2 0 0 1-2.5-1.1c-1.7-3.2-3.2-5.9-6.5-7.4-4.7-2-8.5.1-12.5 2.3-3.8 2.1-7.4 4.1-8.4 8.7-.6 2.9 1.2 6.8 2.5 9.2a4 4 0 0 1-.2 4.1c-14.7 22.7 5.7 54.3 33.3 49.8 28.7-4.5 37.3-43.4 13.1-59.7zm-35.7-8.6c3.4-1.8 5.8-1.2 7.8 1a2 2 0 0 1-.9 3.4c-4 1.3-7.8 3.5-10.8 6.1a2 2 0 0 1-3.1-.6c-2.9-5.3 3.4-8 7-9.9zm30.6 60c-22.2 12.3-48.4-10.6-39.2-34.2 9.1-23.5 43.6-22.8 51.9.9a27.9 27.9 0 0 1-12.7 33.3z"/><path class="st1" d="M249.6 111.7c-.7-.2-1.3-.7-1.7-1.3-2-3.6-3.9-7.3-6-10.8-1.1-1.8-3-4.6-5.1-2-1.4 1.7.4 3.7 1.3 5.3a519.6 519.6 0 0 1 5.6 10.4c.3 1.2-.2 1.1-.3 2.6-.1 4.3 4 8.5 8.3 5.3 3.7-2.7 2.1-8.6-2.1-9.5zM148.6 254.6c-2.6-5 4.5-7.8.4-13-2.2-2.8-6-5.5-10-2.3v.2c-1 1.4-3 1.2-4.5.9-1-.2-1.6-1.1-1.5-2.1 0-3.7.1-6.8-2.1-9.6-3.1-4-7.5-4-12-3.9-4.3 0-8.4 0-11.6 3.6-1.9 2.2-2.2 6.6-2.2 9.3a4 4 0 0 1-2.1 3.5c-23.8 12.8-21.1 50.4 5.3 59.7 27.4 9.6 53.6-20.4 40.3-46.3zm-27.2-24.7c3.9.1 5.7 1.8 6.4 4.7.3 1.5-.9 2.8-2.4 2.5-4.1-.7-8.5-.7-12.4.1a2 2 0 0 1-2.5-2c-.1-6 6.8-5.4 10.9-5.3zm-20 18.5c19.3-16.2 49.2 1 45.1 25.8a28 28 0 0 1-27.1 23.1c-25.4.1-37.3-32.6-18-48.9z"/><path class="st1" d="M122.6 265.4c-.6-.5-.8-1.2-.8-1.9 0-4.1.1-8.3-.1-12.4-.1-2.1-.4-5.4-3.5-4.2-2 .8-1.4 3.5-1.4 5.2l.1 8.7c0 .9.1 2.2-.2 3.1-.3 1.2-.8.9-1.5 2.1-2.2 3.8-.6 9.4 4.8 8.6 4.5-.5 5.9-6.4 2.6-9.2zM349.3 256.5l-.1.1c-1.7.4-3.3-1.1-4.3-2.3-.7-.8-.6-1.9 0-2.7 2.3-2.8 4.3-5.2 4.3-8.8.1-5.1-3.4-7.8-6.9-10.6-3.4-2.7-6.6-5.3-11.3-4.4-2.9.5-5.9 3.7-7.6 5.9a4.2 4.2 0 0 1-3.8 1.4c-26.6-5-48.1 25.9-33.4 49.8 15.3 24.7 54.4 17.8 60.4-10.7 1.2-5.5 8.6-3 8.7-9.7.1-3.8-1.3-8.3-6-8zm-16.6 31.4a28 28 0 0 1-35.6.9c-19.8-15.8-8.6-48.8 16.7-49.3 25.2-.4 37.7 31.7 18.9 48.4zm10.3-42.6c-.7 1.3-2.5 1.6-3.4.5a33.7 33.7 0 0 0-9.7-7.7 2 2 0 0 1-.6-3.1c3.8-4.7 8.7.1 11.8 2.7 2.8 2.5 3.2 5 1.9 7.6z"/><path class="st1" d="M327.8 248.9c-2.1-.6-3.3 1.8-4.4 3.2l-5.4 6.8c-.6.7-1.3 1.8-2.1 2.3-1 .7-1.1.2-2.5.7-4 1.6-6.3 6.9-1.7 9.7 3.9 2.4 8.7-1.3 7.9-5.6-.1-.7.1-1.5.6-2 2.6-3.2 5.3-6.4 7.7-9.7 1.3-1.6 3.1-4.4-.1-5.4zM402.5 82.9c-3.5.8-7.6 3.2-6.2 7.7l.1.1c.8 1.5-.3 3.5-1.3 4.7-.6.8-1.7 1.1-2.7.6-3.3-1.6-6.1-2.9-9.6-2.2-4.9 1.1-6.8 5.1-8.7 9.2-1.8 3.9-3.6 7.6-1.7 12 1.2 2.7 5 4.8 7.5 6a4 4 0 0 1 2.2 3.4c1.2 24.4 29.9 37.9 49.9 25.8v-6.6c-15 11.3-38.8 5.5-44-14.7-6.3-24.4 22-44 42.6-29.6.5.3.4.7 1.4 1.1V94a31 31 0 0 0-18.1-5c-5.7.3-4.9-7.5-11.4-6.1zm-14.3 19.7a33.4 33.4 0 0 0-5.3 11.3c-.3 1.3-1.7 1.9-2.9 1.4-5.4-2.6-1.9-8.5-.1-12.1 1.8-3.5 4.1-4.4 7-3.7 1.5.1 2.2 1.8 1.3 3.1z"/><path class="st1" d="M412.5 117.2c-.7.3-1.5.2-2.1-.1-3.7-1.8-7.4-3.7-11.2-5.3-1.9-.8-5.1-1.9-5.3 1.4-.1 2.2 2.5 2.8 4.1 3.5l7.8 3.7c.8.4 2 .9 2.7 1.5.9.8.5 1.1 1.3 2.3 2.5 3.6 8.2 4.6 9.8-.6 1.6-4.3-3.1-8.1-7.1-6.4zM0 94.1v6.4a27.8 27.8 0 0 1 0 43.2v6.6c2-1.3 4.3-2.9 6.3-4.9C21.9 129.7 16 104.7 0 94.1zM51.3 322.3c-4.5.1-3.9-6.1-9.1-5-2.8.6-6.1 2.5-5 6.1l.1.1c.6 1.2-.3 2.8-1 3.8-.5.7-1.4.9-2.1.5-2.6-1.3-4.8-2.3-7.6-1.7-3.9.9-5.4 4-7 7.3-1.5 3.1-2.9 6.1-1.4 9.6.9 2.1 4 3.9 6 4.8 1.1.5 1.7 1.5 1.8 2.7 1 21.5 29 32.5 44.8 16.7 16.3-16.5 3.7-45.6-19.5-44.9zm-27 20.7c-4.3-2-1.5-6.7-.1-9.7 1.4-2.8 3.2-3.5 5.5-3 1.2.3 1.7 1.6 1 2.6-2 2.7-3.4 5.9-4.2 9-.2 1.1-1.3 1.6-2.2 1.1zm47.6 14.9c-8.6 18.3-36.2 15.7-41.3-3.9-5-19.4 17.6-35.1 34-23.6 8.7 6.2 11.8 18 7.3 27.5z"/><path class="st1" d="M50.2 344.7a2 2 0 0 1-1.7-.1c-3-1.4-5.9-2.9-8.9-4.2-1.5-.7-4.1-1.5-4.2 1.1-.1 1.8 2 2.2 3.3 2.8a176.5 176.5 0 0 0 8.5 4.1c.7.6.4.8 1 1.8 2 2.8 6.6 3.6 7.8-.5 1-3.4-2.7-6.4-5.8-5zM321.6 330.7c-3.9.1-3.4-5.3-7.9-4.3-2.4.5-5.3 2.2-4.3 5.3h.1c.5 1.1-.2 2.4-.9 3.3-.4.6-1.2.7-1.8.4-2.3-1.1-4.2-2-6.6-1.5-3.4.8-4.7 3.5-6.1 6.4-1.3 2.7-2.5 5.3-1.2 8.3.8 1.9 3.5 3.4 5.2 4.2.9.4 1.5 1.3 1.5 2.4.9 18.7 25.2 28.3 39 14.5 14.1-14.2 3.2-39.5-17-39zm-23.5 18.1c-3.8-1.8-1.3-5.9-.1-8.4 1.2-2.4 2.8-3 4.8-2.6 1 .2 1.5 1.4.9 2.2a22 22 0 0 0-3.6 7.8c-.2.9-1.2 1.4-2 1zm41.5 13c-7.5 15.9-31.5 13.6-35.9-3.4-4.4-16.9 15.3-30.5 29.6-20.5a19.6 19.6 0 0 1 6.3 23.9z"/><path class="st1" d="M320.6 350.2c-.5.2-1 .2-1.5-.1l-7.8-3.7c-1.3-.6-3.5-1.3-3.7 1-.1 1.5 1.8 1.9 2.9 2.4l5.4 2.6c.6.3 1.4.6 1.9 1 .6.6.3.7.9 1.6 1.7 2.5 5.7 3.2 6.8-.4 1.1-3-2.2-5.6-4.9-4.4zM367.5 56c.7.3 1.1 1 1.1 1.7.7 13.5 18.1 20.3 28 10.4 10.2-10.2 2.4-28.4-12.2-28-2.8.1-2.5-3.8-5.7-3.1-1.7.4-3.8 1.6-3.1 3.8h.1c.4.8-.2 1.7-.6 2.4a1 1 0 0 1-1.3.3c-1.6-.8-3-1.5-4.8-1.1-2.5.5-3.4 2.5-4.3 4.6-.9 1.9-1.8 3.8-.9 6 .5 1.3 2.4 2.4 3.7 3zm25.2-10.8a14 14 0 0 1 4.6 17.1c-5.4 11.4-22.6 9.8-25.8-2.4-3.2-12.1 11-21.9 21.2-14.7zM367.5 47c.9-1.7 2-2.2 3.5-1.9.7.2 1.1 1 .6 1.6a17.8 17.8 0 0 0-2.6 5.6c-.2.6-.9 1-1.4.7-2.8-1.3-1.1-4.2-.1-6z"/><path class="st1" d="M376.5 53.8l3.9 1.8 1.4.7c.5.4.2.5.6 1.1 1.2 1.8 4.1 2.3 4.9-.3.7-2.2-1.6-4.1-3.6-3.2a2 2 0 0 1-1.1 0l-5.6-2.6c-1-.4-2.5-1-2.6.7 0 1.2 1.3 1.5 2.1 1.8zM25.8 69.6C40 55.3 29.1 30 8.9 30.6c-3.9.1-3.5-5.3-7.9-4.3l-1 .3v10.5c6-3.5 13.9-4 20.5.7a19.3 19.3 0 0 1 6.3 23.8C21.8 72.4 9 74.8 0 69.9v4c8 3.8 18.5 3 25.8-4.3z"/><path class="st1" d="M5.2 53.4c.6.6.3.7.9 1.6 1.7 2.5 5.7 3.2 6.8-.4 1-3-2.3-5.7-5-4.5-.5.2-1.1.2-1.5-.1L0 47v3.8l3.3 1.5c.6.3 1.5.6 1.9 1.1zM238.9 27c12.4 11.1 32.7 1 31.3-15.6-.3-3.2 4.2-3 3.2-6.7-.6-2-2-4.2-4.6-3.3-.8.4-1.6.6-2.4-.4h-4.8c5.3 5 7.6 13.1 3.2 20.2-4 6.4-12.3 9.1-19.3 6.2C234.3 22.9 233 8 240.9 1h-4c-5.6 8-6 18.9 2 26z"/><path class="st1" d="M252.1 7.8c-.2.5-.4 1.2-.8 1.6-.4.6-.6.3-1.3.8-2 1.5-2.3 4.8.6 5.6 2.5.7 4.6-2.1 3.4-4.3-.2-.4-.2-.8 0-1.2l2.7-6.7c.3-.8.6-1.6.2-2.6h-2.1l-.9 2.1a236 236 0 0 1-1.8 4.7zM47.5 117.7c12 10.7 31.6.9 30.3-15.1-.3-3.1 4.1-3 3.1-6.5-.5-1.9-2-4.1-4.4-3.2v.1c-.8.5-1.9-.1-2.7-.6-.5-.3-.6-.9-.4-1.4.8-1.9 1.4-3.4.9-5.4-.8-2.7-3-3.6-5.3-4.5-2.2-.9-4.3-1.8-6.7-.6-1.4.7-2.5 2.9-3.1 4.3-.3.7-1 1.2-1.8 1.3-14.9 1.6-21.5 21.3-9.9 31.6zm14.9-33c1.2-3.1 4.6-1.3 6.7-.4 2 .9 2.5 2.1 2.3 3.7-.1.8-1.1 1.2-1.7.8-2-1.3-4.2-2.2-6.4-2.6-.8-.1-1.2-.8-.9-1.5zM55 89.5c13.3-4.2 24.9 10.9 17.6 22.7a15.5 15.5 0 0 1-18.7 6.1c-13-5.3-12.2-24.6 1.1-28.8z"/><path class="st1" d="M58.9 106.9c2.5.6 4.4-2.1 3.3-4.2-.2-.4-.2-.8 0-1.2l2.6-6.3c.4-1.1.9-2.9-.9-2.9-1.2 0-1.5 1.5-1.8 2.4l-1.8 4.4-.7 1.6c-.4.5-.6.3-1.2.8-2 1.4-2.4 4.6.5 5.4zM233.3 245.6c42.3-16 17.5-81.6-24.8-65.6s-17.5 81.6 24.8 65.6zm-39.2-19.9c4.3-3.4 3.8-5.3-1.9-5a29.8 29.8 0 0 1 15.7-34.7c1.1 1.4.2 5.1 4.2 3.6 4-1.5.8-3.7.8-5.5a29.8 29.8 0 0 1 34.8 15.6c-1.4 1.1-5.2.3-3.7 4.2 1.5 3.9 3.8.8 5.5.7a29.8 29.8 0 0 1-15.7 34.9c-1.1-1.4-.3-5.2-4.2-3.7-3.9 1.5-.8 3.9-.7 5.6a29.6 29.6 0 0 1-34.8-15.7z"/><path class="st1" d="M229.9 200.8c.1-.3 2.5-16.1-.3-9.5-1.6 3.8-5.2 19.3-8.9 20.9-3 1.4-17.4-7.7-18.8-3-1 3.3 10.1 5.1 11.6 5.5 7.1 1.7 6.1 3.3 11-.8a39.9 39.9 0 0 0 5.4-13.1zM82.1 33.2C97.5 27.4 101.9 14 98.9 1h-3.5c2.7 11-2.6 22.6-12.8 27.5-.9-1.1-.3-4.2-3.4-3-3.2 1.2-.6 3.1-.6 4.6a24 24 0 0 1-28.1-12.7c3.4-2.8 3.1-4.4-1.5-4.1A23.4 23.4 0 0 1 48.8 1h-4.1c-2.8 19 14 41.1 37.4 32.2z"/><path class="st1" d="M93.3 1h-1.7c.5 1 1.1 0 1.7 0zM71.9 6.4C69.4 7.5 57.9.2 56.8 4c-.8 2.6 8.1 4.2 9.3 4.4C71.9 9.8 71 11 75 7.7c1-.9 2.2-3.7 3.2-6.7h-2.9c-1.1 3-2.3 4.9-3.4 5.4zM265.6 431.5c.8-1.9 1.5-3.6.9-5.5-.8-2.8-3.1-3.7-5.5-4.7-2.3-.9-4.5-1.8-6.9-.6-1.5.7-2.6 3-3.2 4.4-.3.8-1 1.2-1.9 1.3-5.1.5-9.3 3.7-12.1 6.7h4c1.6-1 3.5-2.6 5.7-3.3 5.7-1.8 11.2.3 15 3.3h4.8l-.4-.2c-.5-.4-.6-.9-.4-1.4zm-2.1-3.1c-.1.8-1.1 1.3-1.8.8-2-1.3-4.3-2.2-6.6-2.6-.7-.1-1.1-.9-.9-1.6 1.3-3.2 4.8-1.4 6.9-.4 2.1.8 2.7 2.1 2.4 3.8z"/><path class="st1" d="M255.8 432.6c-.4 0-.7.4-.9.4h2.1c-.3 0-.6-.4-1.2-.4zM62.1 412.3A26.8 26.8 0 0 0 44.7 433h4.1a23 23 0 0 1 12.8-15.7c.9 1.1.2 4.2 3.4 3 3.2-1.2.7-3 .6-4.4 11.1-3.1 23 2.2 28.1 12.6-1.1.9-4.2.1-3 3.3.3.7.6 1.2.9 1.2h1.7c.7 0 1.3-.7 1.9-.8l.2.8h3.5c-3.6-15-18.1-27.8-36.8-20.7z"/><path class="st1" d="M79.1 421.5c-.8 1.9-2.2 7.5-3.9 11.5h2.9c.6-1 1-3.1 1.2-3.9.1-.3 2.1-12.9-.2-7.6zM340.2 157.9c2.4-33.3-49.2-36.9-51.6-3.7-2.4 33.3 49.2 37 51.6 3.7zm-43.9-3.1c.2-3.1-2.3-1.7-3.5-2.2a22 22 0 0 1 21.3-18.5c1 3.9 2.4 4.2 3.9.3a22 22 0 0 1 18.4 21.3c-1.3.3-3.5-1.4-3.7 1.7-.2 3.1 2.2 1.7 3.4 2.2a22.2 22.2 0 0 1-21.2 18.5c-.3-1.3 1.4-3.5-1.7-3.8-3.1-.2-1.7 2.3-2.2 3.5a22 22 0 0 1-18.5-21.3c1.2-.4 3.5 1.3 3.8-1.7z"/><path class="st1" d="M319.7 165.8c.2.2 10 6.6 6.4 2.7-2-2.2-11.3-9.4-11.3-12.5 0-2.5 10.6-9.2 7.8-11.6-1.9-1.7-6.5 5.2-7.2 6.1-3.3 4.3-4.1 3-2.8 7.6.6 2 5.5 6.5 7.1 7.7zM83.4 157.7C51 140.3 24 190.6 56.5 208c32.4 17.4 59.4-32.9 26.9-50.3zm-35.7 15.6c4.4.8 5.3-.5 2-3.8 6.4-9.7 19-13.5 29.7-8.9-.3 1.4-3 2.9 0 4.5 3.1 1.6 2.7-1.5 3.8-2.5 9.8 6.4 13.6 19 9 29.7-1.4-.3-2.9-3-4.5 0s1.5 2.8 2.5 3.8a24.2 24.2 0 0 1-29.8 9c.3-1.4 3-3 0-4.6-3-1.6-2.8 1.6-3.8 2.6a24.2 24.2 0 0 1-8.9-29.8z"/><path class="st1" d="M71.2 185.5c2.2.3 9-2.6 10.9-3.7.3-.1 11.2-7.1 5.7-5.3-3.2 1-14.6 7.1-17.6 5.7-2.5-1.1-4.5-14.8-8.2-13.1-2.5 1.2 2.3 8.9 2.8 10 2.9 5.4 1.3 5.6 6.4 6.4zM252.8 356.7c-29.1-15.6-53.2 29.5-24.2 45.1 29.1 15.6 53.3-29.5 24.2-45.1zm7.9 31c-1.3-.2-2.6-2.7-4.1 0-1.5 2.7 1.4 2.5 2.3 3.4a21.7 21.7 0 0 1-26.7 8.1c.2-1.3 2.7-2.7 0-4.1-2.7-1.4-2.5 1.4-3.4 2.3a21.7 21.7 0 0 1-8-26.7c3.9.7 4.7-.4 1.8-3.4 5.8-8.7 17-12.1 26.6-8-.2 1.3-2.7 2.6 0 4 2.7 1.5 2.4-1.3 3.4-2.2 8.8 5.7 12.2 17 8.1 26.6z"/><path class="st1" d="M241 378.8c-2.2-1-4.1-13.3-7.3-11.8-2.3 1 2 8 2.5 9 2.5 4.7 1.1 4.9 5.7 5.6 2 .3 8.1-2.4 9.8-3.3.2-.1 10-6.3 5.1-4.7-2.9 1-13.1 6.5-15.8 5.2zM168.7 335.5c-39.9-21.4-73 40.4-33.1 61.8 39.8 21.4 73-40.4 33.1-61.8zm10.9 42.5c-1.7-.3-3.6-3.7-5.6 0-2 3.7 1.9 3.4 3.1 4.7a29.7 29.7 0 0 1-36.6 11.1c.3-1.7 3.7-3.7 0-5.7s-3.4 1.9-4.7 3.2a29.8 29.8 0 0 1-11-36.6c5.4 1 6.5-.6 2.5-4.7a29.8 29.8 0 0 1 36.5-11c-.3 1.7-3.7 3.5 0 5.5s3.4-1.8 4.6-3a29.8 29.8 0 0 1 11.2 36.5z"/><path class="st1" d="M152.5 365.8c-3-1.4-5.6-18.2-10-16.1-3.1 1.4 2.8 11 3.5 12.3 3.4 6.5 1.5 6.8 7.8 7.7 2.7.4 11.1-3.2 13.4-4.5.3-.2 13.8-8.7 7-6.5-4 1.4-18 8.8-21.7 7.1zM191.8 62.1c-1.4-50.5-79.7-48.3-78.3 2.2 1.4 50.5 79.7 48.3 78.3-2.2zm-43-32c2 5.7 4.2 6 5.9-.2 16 1 29.1 13.4 30.9 29.3-1.8.7-5.5-1.6-5.3 3.1.1 4.8 3.6 2.3 5.5 2.8-1 16-13.3 29.1-29.2 31-.7-1.9 1.6-5.5-3.1-5.4-4.7.1-2.3 3.7-2.8 5.6A33.3 33.3 0 0 1 119.6 67c1.9-.6 5.6 1.6 5.5-3.1-.1-4.7-3.8-2.3-5.7-2.8 1-16 13.4-29.1 29.4-31z"/><path class="st1" d="M162.1 77.1c.3.2 16 8.5 10.1 3.2-3.4-3.1-18.4-12.5-18.8-17.1-.3-3.7 14.5-15.5 10.1-18.7-3.1-2.2-9.1 8.8-10 10.2-4.4 6.9-5.7 5.2-3.2 11.9 1 2.8 9.2 8.9 11.8 10.5zM116.8 176.9c1.5 2.1 5.1-1.2 6.6-.1 10.5 7.3 14.9 7.2 16 8.1.6.5.9 2.2 1.2 2.8 3.6 7.7 5.6-1.2 8.6-3.5 1.7-1.3 4.5-1.9 6.4-3.2 2.1-1.4 3.9-3.1 5.5-5 3.1-3.8 4.2-8 5.1-12.6a9.6 9.6 0 0 0 7.3-6.8c1.3-4.4-1.7-6.9-2.2-10.5-.9-7-2.3-11.1-8.9-14.7-4.1-2.2-8.7-5.4-13.4-5.9-4.3-.4-6.7 1.6-10.3 3.3-3.4 1.7-7.4 0-10.8 3.7a9 9 0 0 0-2.3 4.7c-.3 1.8.9 3.8.6 5.3-.2 1-1.4 1.9-2.2 2.9a23.7 23.7 0 0 0-5.5 17.8c.3 3.5 1.6 5.1 0 8.2-.7 1.4-2.8 4.1-1.7 5.5zm35.8-45.9c5.8 3.1 15.1 6.1 14.7 14.2-2.4-.8-4.7.6-6.8.2-1.6-.3-4.6-4-6.2-4.9-2.6-1.5-5.5-1.7-8.2-3-1.8-.8-.6 0-1.8-1.3-1.1-1.2-1.4-2.9-2.8-4.1 3-2.6 7.3-3.1 11.1-1.1zm-18.2 12c10.3-4.4 22.5.9 26.3 11.5a20 20 0 0 1-13.9 25.9c-22.9 5.4-34.1-28.2-12.4-37.4zM146.8 180.3z"/><path class="st1" d="M138.9 163.4c1.5 2.1 4.2 2.2 6.1.7 1-.8 1.1-1.6 2-2.3 1-.7 2.9-.9 4-1.3l6.2-2.1-1.3-4c-3 1-7.2 3.2-10.3 3.4-3.7.2-4.3-4.4-5.5-7.4l-3.9 1.6c.8 2 2.5 4.6 2.7 6.7.1 1.6-1.4 2.8 0 4.7zM289.6 76.1c1.6 2.1 5.2-1.2 6.8-.1 10.8 7.4 15.2 7.3 16.3 8.3.6.5.9 2.2 1.2 2.9 3.7 7.9 5.7-1.3 8.8-3.6 1.8-1.4 4.6-2 6.5-3.3 2.1-1.4 4-3.1 5.7-5.1a28 28 0 0 0 5.2-12.9 10 10 0 0 0 7.5-6.9c1.3-4.5-1.8-7.1-2.2-10.7-.9-7.2-2.4-11.4-9.1-15.1-4.2-2.3-8.9-5.6-13.7-6-4.4-.4-6.9 1.6-10.6 3.4-3.5 1.7-7.6 0-11 3.8-1.2 1.3-2 3-2.3 4.8-.3 1.8.9 3.9.6 5.4-.2 1.1-1.4 1.9-2.3 2.9a25.3 25.3 0 0 0-5.7 18.2c.3 3.5 1.7 5.2 0 8.4-.6 1.4-2.8 4.2-1.7 5.6zm36.6-47c5.9 3.2 15.5 6.2 15 14.5-2.5-.8-4.9.6-6.9.2-1.6-.3-4.7-4.1-6.4-5-2.7-1.6-5.7-1.8-8.4-3-1.9-.9-.6 0-1.8-1.3-1.1-1.2-1.5-2.9-2.8-4.1 3-2.8 7.5-3.3 11.3-1.3zm-18.6 12.3c10.5-4.5 23 1.1 26.9 11.9 4 11.2-2.7 23.7-14.2 26.7h-.3V79.7h.1c-23.3 5.6-34.7-28.8-12.5-38.3z"/><path class="st2" d="M320.3 79.6"/><path class="st1" d="M312.2 62.3a4.2 4.2 0 0 0 6.2.7c1-.8 1.1-1.7 2.1-2.4 1.1-.7 2.9-1 4.1-1.4l6.4-2.1-1.4-4.1c-3 1-7.4 3.3-10.6 3.5-3.8.2-4.4-4.5-5.6-7.6l-4 1.6c.8 2.1 2.6 4.7 2.8 6.9.1 1.7-1.4 3 0 4.9zM231.3 333.4c.6.5.9 2.1 1.2 2.8 3.5 7.5 5.5-1.2 8.4-3.4 1.7-1.3 4.4-1.9 6.2-3.1 2-1.4 3.8-3 5.4-4.9 3-3.7 4.1-7.8 5-12.3a9.4 9.4 0 0 0 7.1-6.6c1.2-4.3-1.7-6.7-2.1-10.2-.9-6.9-2.3-10.9-8.7-14.4-4-2.2-8.5-5.3-13.1-5.7-4.2-.4-6.6 1.5-10.1 3.3-3.3 1.6-7.3 0-10.5 3.6a10 10 0 0 0-2.2 4.5c-.3 1.8.8 3.7.6 5.2-.2 1-1.4 1.8-2.2 2.8a24 24 0 0 0-5.4 17.3c.3 3.4 1.6 5 0 8-.6 1.2-2.7 3.9-1.6 5.3 1.5 2 4.9-1.2 6.4-.1 10.3 7 14.6 6.9 15.6 7.9zm9.3-5.1c.2 0 .2 0 0 0zm3.6-47.6c5.7 3 14.8 5.9 14.3 13.8-2.3-.8-4.6.6-6.6.2-1.6-.3-4.5-3.9-6.1-4.8-2.6-1.5-5.4-1.7-8-2.9-1.8-.8-.6 0-1.7-1.3-1-1.2-1.4-2.8-2.7-4a9.8 9.8 0 0 1 10.8-1zm-17.7 11.7c10-4.3 21.9 1 25.6 11.2a19.7 19.7 0 0 1-13.6 25.3h-.5v-.1h.3c-22.3 5.5-33-27.4-11.8-36.4zM238.5 328.8c0 .1 0 .1 0 0z"/><path class="st1" d="M230.8 312.4a4 4 0 0 0 5.9.6c.9-.8 1-1.6 2-2.3 1-.7 2.8-.9 3.9-1.3l6.1-2-1.3-3.9c-2.9 1-7 3.1-10.1 3.3-3.6.2-4.2-4.3-5.4-7.2l-3.8 1.6c.8 2 2.5 4.5 2.7 6.5.2 1.6-1.3 2.8 0 4.7zM398.1 419.9c1.2-4.3-1.7-6.7-2.1-10.2-.9-6.9-2.3-10.9-8.7-14.4-4-2.2-8.5-5.3-13.1-5.7-4.2-.4-6.6 1.5-10.1 3.3-3.3 1.6-7.3 0-10.5 3.6a10 10 0 0 0-2.2 4.5c-.3 1.8.8 3.7.6 5.2-.2 1-1.4 1.8-2.2 2.8a23.5 23.5 0 0 0-5.4 17.2c.3 2.9 1.3 4.8.5 6.8h6.1c-4.7-9-2.9-21.5 9-26.6 10-4.3 21.9.9 25.6 11.1a18.8 18.8 0 0 1-1.2 15.5h4.7c.8-2 1.4-4.3 1.8-6.6a9.2 9.2 0 0 0 7.2-6.5zm-12.8-11.1c-1.6-.3-4.5-3.9-6.1-4.8-2.6-1.5-5.4-1.7-8-2.9-1.8-.8-.6 0-1.7-1.3-1-1.2-1.4-2.8-2.7-4 2.9-2.6 7.2-3 10.8-1.1 5.7 3 14.8 5.9 14.3 13.8-2.3-.6-4.6.8-6.6.3z"/><path class="st1" d="M370.9 421c-3.6.2-4.2-4.3-5.4-7.2l-3.8 1.6c.8 2 2.5 4.5 2.7 6.5.2 1.6-1.3 2.8 0 4.6a4 4 0 0 0 5.9.6c.9-.8 1-1.6 2-2.3 1-.7 2.8-.9 3.9-1.3l6.1-2-1.3-3.9c-3 1-7.1 3.1-10.1 3.4zM342.8 7.6c1.5 2 4.9-1.2 6.4-.1 10.3 7.1 14.5 7 15.6 7.9.6.5.9 2.1 1.2 2.8 3.5 7.5 5.5-1.2 8.4-3.4 1.7-1.3 4.4-1.9 6.2-3.1A23 23 0 0 0 389.2 1h-4.7c-2.5 5-6.8 9-12.4 10h-.1v-.1c-9.8 2.4-17.3-2.8-21-9.8h-6c-.1 1-.3.8-.5 1.2-.7 1.2-2.7 3.9-1.7 5.3zm31.3 2.8c.2 0 .2 0 0 0z"/><path class="st2" d="M372 10.9"/><path class="st1" d="M7.4 283.8c.4 1.8.5 6.2 2.8 6.8 3.2.8 4.1-5.4 6.5-5.6 16.5-1.4 20.8-5 22.7-5 1 0 2.7 1.4 3.5 1.8 10 4.8 4.6-5.9 5.7-10.6.6-2.8 2.9-5.6 3.8-8.5.9-3.1 1.4-6.3 1.4-9.6 0-6.3-2.4-11.4-5.2-16.8 2.9-3.5 3.6-8.6 1.8-12.8-2.3-5.4-7.4-5.5-10.8-8.7-6.7-6.3-11.5-9.2-21.1-7.4-5.9 1.1-13.2 1.7-18.3 5.2l-.1.1v7.5c2-2.6 4.7-4.5 8.1-5.2 8.3-1.7 20.2-6.4 26.4 2.1-3.1 1.2-4.2 4.5-6.6 5.8-1.9 1-7.8-.2-10.3.2-3.9.6-7 2.8-10.6 3.8-2.5.6-.6.5-2.9.2-1.5-.1-3.2-.8-4.2-1.3v15.9a26 26 0 0 1 35.6-9.9A25.6 25.6 0 0 1 43 269s-.1.2 0 .1c-12.6 16.6-35 10.7-43-3.5v9.3c0 .2.4.4.6.6 3.2 3.2 5.9 3.8 6.8 8.3z"/><path class="st1" d="M21.1 258.9c3.2.9 6-1.2 6.6-4.4.3-1.6-.3-2.5.1-4 .5-1.5 2.1-3.3 2.9-4.7l4.5-7.2-4.6-2.9c-2.2 3.4-4.6 9.2-7.5 12-3.5 3.3-8-.9-11.6-2.9l-2.6 4.8c2.5 1.3 6.3 2.5 8.3 4.5 1.5 1.5 1 4 3.9 4.8zM428.7 31.6h.1c.5 1.1-.2 2.4-.9 3.3-.4.6-1.2.7-1.8.4-2.3-1.1-4.2-2-6.6-1.5-3.4.8-4.7 3.5-6.1 6.4-1.3 2.7-2.5 5.3-1.2 8.3.8 1.9 3.5 3.4 5.2 4.2.9.4 1.4 1.3 1.5 2.4A22 22 0 0 0 432 73.9v-4c-5-2.3-7.7-6.2-9.1-11.7-2.3-9 2.1-17.1 9.1-21.2V26.5c-2 .8-4.2 2.4-3.3 5.1zm-5.6 8.3a22 22 0 0 0-3.6 7.8c-.2.9-1.2 1.3-2 .9-3.8-1.8-1.3-5.9-.1-8.4 1.2-2.4 2.8-3 4.8-2.6 1 .3 1.5 1.5.9 2.3z"/><path class="st1" d="M427 47.3c-.1 1.5 1.7 1.9 2.8 2.4.7.3 1.1.7 2.1 1V47c-1-.2-.9-.4-1.3-.6-1.3-.6-3.4-1.4-3.6.9zM424.5 224.5c-2 4.5-7.4 6.2-7.7 12.6-.1 2.3.4 4.6 1.6 6.5 1.2 2.1 4 3.1 5 4.8.7 1.2.1 3 .1 4.7a32.4 32.4 0 0 0 8.5 21.8v-9.3a23.3 23.3 0 0 1 0-24v-15.9c-1-.2-1.3-.4-2.1-.4.3-1.9 1.1-3.6 2.1-5.1v-7.5c-5 3.2-5.3 7.1-7.5 11.8zM369.6 223c.2 1.1.3 3.9 1.7 4.3 2 .5 2.6-3.4 4.1-3.5 10.4-.9 13.1-3.2 14.3-3.1.6 0 1.7.9 2.2 1.2 6.3 3 2.9-3.7 3.6-6.7.4-1.7 1.8-3.5 2.4-5.3.6-2 .9-4 .9-6 0-4-1.5-7.2-3.3-10.6a7.7 7.7 0 0 0 1.1-8c-1.5-3.4-4.7-3.5-6.8-5.5-4.2-4-7.2-5.8-13.3-4.7-3.7.7-8.3 1.1-11.5 3.3-2.9 2-3.4 4.5-4.8 7.5-1.3 2.8-4.7 3.9-4.9 7.9-.1 1.4.3 2.9 1 4.1.7 1.3 2.5 1.9 3.1 3 .4.7.1 1.9.1 2.9a19 19 0 0 0 5.7 14.1c2.2 1.9 3.9 2.3 4.4 5.1zm.5-43.2c5.3-1.1 12.7-4 16.6 1.3-1.9.7-2.7 2.9-4.2 3.6-1.2.6-4.9-.1-6.5.1-2.5.4-4.4 1.8-6.7 2.4-1.6.4-.4.3-1.8.1-1.3-.2-2.4-1-3.8-1.1a8.2 8.2 0 0 1 6.4-6.4zm-5.2 17a16.2 16.2 0 0 1 22.5-6.4 16.2 16.2 0 0 1 4.6 23.5c-11.5 15.3-36-.1-27.1-17.1zM392 213.9z"/><path class="st1" d="M378.3 207.4c2 .6 3.8-.8 4.2-2.7.2-1-.2-1.6.1-2.5.3-1 1.3-2.1 1.8-2.9l2.9-4.5-2.9-1.8c-1.4 2.2-2.9 5.8-4.7 7.5-2.2 2.1-5-.6-7.3-1.8l-1.6 3c1.6.8 4 1.6 5.2 2.8.8.8.5 2.4 2.3 2.9zM411.6 288.8c-4.1-2.6-8.8-6.2-13.7-7-4.5-.7-7.1 1.2-11 2.8-3.6 1.6-7.8-.4-11.5 3.2a9.7 9.7 0 0 0-2.7 4.7c-.4 1.9.7 4 .3 5.6-.2 1.1-1.6 1.9-2.5 2.8a25.7 25.7 0 0 0-6.9 18.2c.1 3.6 1.4 5.4-.5 8.6-.8 1.3-3.1 4-2.1 5.6 1.5 2.2 5.4-.9 6.9.3 10.5 8.2 15.1 8.4 16.2 9.5.6.6.8 2.3 1.1 3 3.3 8.3 5.9-.9 9.2-3.2 1.9-1.3 4.8-1.7 6.9-2.9 2.3-1.3 4.3-3 6.1-4.9 3.4-3.8 4.9-8.1 6.1-12.8 3.7-.5 6.8-3.1 8.1-6.6 1.6-4.5-1.4-7.3-1.6-11.1-.5-7.3-1.7-11.6-8.4-15.8zm-19.4 50c-24.2 4.4-33.9-31.5-10.6-39.8 11-3.9 23.4 2.4 26.7 13.6a20.7 20.7 0 0 1-16.1 26.2zm23.6-35.4c-2.5-1-5 .4-7.1-.2-1.7-.5-4.5-4.4-6.2-5.5-2.7-1.8-5.7-2.1-8.4-3.6-1.8-1-.6 0-1.8-1.5-1.1-1.3-1.3-3.1-2.6-4.4a10 10 0 0 1 11.6-.5c5.9 3.5 15.5 7.2 14.5 15.7zM392.2 338.8z"/><path class="st1" d="M392.4 315.2c-3.9 0-4.2-4.9-5.3-8.1l-4.2 1.4c.7 2.1 2.3 5 2.4 7.2.1 1.7-1.6 2.9-.3 5 1.4 2.3 4.2 2.6 6.3 1.1 1.1-.8 1.2-1.7 2.3-2.3 1.1-.7 3-.8 4.3-1.1l6.6-1.8-1.1-4.3c-3.2.8-7.7 2.9-11 2.9z"/></svg>