<svg id="Layer_1" xmlns="http://www.w3.org/2000/svg" viewBox="0 0 512 512">
  <style>
    .st0{fill:#010101}
  </style>
  <path class="st0" d="M465.1 170.7c-6.4-31.5-19.8-60.5-38.4-85.3A213.3 213.3 0 0 0 384 42.7 212.81 212.81 0 0 0 256 0c-14.6 0-28.9 1.5-42.7 4.3-31.5 6.4-60.5 19.7-85.3 38.4a213.3 213.3 0 0 0-42.7 42.7 212.81 212.81 0 0 0-42.7 128v85.3c0 12.3 5.2 23.3 13.4 31.1a71.6 71.6 0 0 1 22.8 52.3v4.8c0 19.6-8.6 38-22.9 51.5A42.67 42.67 0 0 0 42.7 474a42.72 42.72 0 0 0 39.4 38 42.72 42.72 0 0 0 32.3-73.7A71.6 71.6 0 0 1 91.6 386v-4c0-19.8 8.4-38.7 22.8-52.3a42.4 42.4 0 0 0 13.4-31.1v-85.3c0-15 2.6-29.3 7.3-42.7 12.9-36.4 41.7-65.2 78-78a128.5 128.5 0 0 1 85.4 0c36.4 12.9 65.2 41.7 78 78a128.5 128.5 0 0 1 0 85.4 128.03 128.03 0 0 1-78 78 128.5 128.5 0 0 1-42.7 7.3h-85.3c-23.6 0-42.7 19.1-42.7 42.7s19.1 42.6 42.6 42.6H256c14.6 0 28.9-1.5 42.7-4.3 31.5-6.4 60.5-19.7 85.3-38.4a213.3 213.3 0 0 0 42.7-42.7 212.81 212.81 0 0 0 42.7-128c-.1-14.5-1.5-28.8-4.3-42.5z"/>
  <path class="st0" d="M298.7 213.3c0-23.6-19.1-42.7-42.7-42.7s-42.7 19.1-42.7 42.7S232.4 256 256 256s42.7-19.1 42.7-42.7z"/>
</svg>
